{
	"asset":{
		"generator":"Khronos glTF Blender I/O v4.2.70",
		"version":"2.0"
	},
	"scene":0,
	"scenes":[
		{
			"name":"Scene",
			"nodes":[
				0
			]
		}
	],
	"nodes":[
		{
			"mesh":0,
			"name":"Grass.001",
			"rotation":[
				0,
				-0.1082095131278038,
				0,
				0.9941282272338867
			],
			"scale":[
				1.7696845531463623,
				1.3341186046600342,
				1.7696845531463623
			],
			"translation":[
				10.134883880615234,
				0.9999995231628418,
				0
			]
		}
	],
	"meshes":[
		{
			"name":"Plane.001",
			"primitives":[
				{
					"attributes":{
						"POSITION":0,
						"NORMAL":1,
						"TEXCOORD_0":2
					},
					"indices":3
				}
			]
		}
	],
	"accessors":[
		{
			"bufferView":0,
			"componentType":5126,
			"count":3812,
			"max":[
				1.3357914686203003,
				-0.36791542172431946,
				1.4742952585220337
			],
			"min":[
				-1.274113655090332,
				-0.9785125851631165,
				-1.2565234899520874
			],
			"type":"VEC3"
		},
		{
			"bufferView":1,
			"componentType":5126,
			"count":3812,
			"type":"VEC3"
		},
		{
			"bufferView":2,
			"componentType":5126,
			"count":3812,
			"type":"VEC2"
		},
		{
			"bufferView":3,
			"componentType":5123,
			"count":5718,
			"type":"SCALAR"
		}
	],
	"bufferViews":[
		{
			"buffer":0,
			"byteLength":45744,
			"byteOffset":0,
			"target":34962
		},
		{
			"buffer":0,
			"byteLength":45744,
			"byteOffset":45744,
			"target":34962
		},
		{
			"buffer":0,
			"byteLength":30496,
			"byteOffset":91488,
			"target":34962
		},
		{
			"buffer":0,
			"byteLength":11436,
			"byteOffset":121984,
			"target":34963
		}
	],
	"buffers":[
		{
			"byteLength":133420,
			"uri":"Grass.bin"
		}
	]
}
