{
	"asset":{
		"generator":"Khronos glTF Blender I/O v4.2.70",
		"version":"2.0"
	},
	"scene":0,
	"scenes":[
		{
			"name":"Scene",
			"nodes":[
				0
			]
		}
	],
	"nodes":[
		{
			"mesh":0,
			"name":"Leaves 3.001",
			"rotation":[
				0.010781564749777317,
				0.0032660376746207476,
				0.04227488487958908,
				0.9990425109863281
			],
			"scale":[
				1.0548290014266968,
				1.0548288822174072,
				1.2651221752166748
			],
			"translation":[
				-0.32675492763519287,
				5.681252479553223,
				-0.4291473627090454
			]
		}
	],
	"materials":[
		{
			"doubleSided":true,
			"name":"StylizedLeafCollection"
		}
	],
	"meshes":[
		{
			"name":"leaves.013",
			"primitives":[
				{
					"attributes":{
						"POSITION":0,
						"NORMAL":1,
						"TEXCOORD_0":2
					},
					"indices":3,
					"material":0
				}
			]
		}
	],
	"accessors":[
		{
			"bufferView":0,
			"componentType":5126,
			"count":24108,
			"max":[
				3.653327465057373,
				3.667513847351074,
				3.6342389583587646
			],
			"min":[
				-4.3111348152160645,
				-3.3570303916931152,
				-3.0788888931274414
			],
			"type":"VEC3"
		},
		{
			"bufferView":1,
			"componentType":5126,
			"count":24108,
			"type":"VEC3"
		},
		{
			"bufferView":2,
			"componentType":5126,
			"count":24108,
			"type":"VEC2"
		},
		{
			"bufferView":3,
			"componentType":5123,
			"count":36162,
			"type":"SCALAR"
		}
	],
	"bufferViews":[
		{
			"buffer":0,
			"byteLength":289296,
			"byteOffset":0,
			"target":34962
		},
		{
			"buffer":0,
			"byteLength":289296,
			"byteOffset":289296,
			"target":34962
		},
		{
			"buffer":0,
			"byteLength":192864,
			"byteOffset":578592,
			"target":34962
		},
		{
			"buffer":0,
			"byteLength":72324,
			"byteOffset":771456,
			"target":34963
		}
	],
	"buffers":[
		{
			"byteLength":843780,
			"uri":"Leaves.bin"
		}
	]
}
