{
	"asset":{
		"generator":"Khronos glTF Blender I/O v4.2.70",
		"version":"2.0"
	},
	"scene":0,
	"scenes":[
		{
			"name":"Scene",
			"nodes":[
				0
			]
		}
	],
	"nodes":[
		{
			"mesh":0,
			"name":"tree.001",
			"rotation":[
				0,
				-0.4014311730861664,
				0,
				0.9158892035484314
			],
			"translation":[
				10.134883880615234,
				0,
				0
			]
		}
	],
	"meshes":[
		{
			"name":"tree.002",
			"primitives":[
				{
					"attributes":{
						"POSITION":0,
						"NORMAL":1,
						"TEXCOORD_0":2,
						"TEXCOORD_1":3
					},
					"indices":4
				}
			]
		}
	],
	"accessors":[
		{
			"bufferView":0,
			"componentType":5126,
			"count":15459,
			"max":[
				2.590430974960327,
				8.905448913574219,
				3.2342183589935303
			],
			"min":[
				-2.817976951599121,
				0.07306765764951706,
				-1.9961607456207275
			],
			"type":"VEC3"
		},
		{
			"bufferView":1,
			"componentType":5126,
			"count":15459,
			"type":"VEC3"
		},
		{
			"bufferView":2,
			"componentType":5126,
			"count":15459,
			"type":"VEC2"
		},
		{
			"bufferView":3,
			"componentType":5126,
			"count":15459,
			"type":"VEC2"
		},
		{
			"bufferView":4,
			"componentType":5123,
			"count":59820,
			"type":"SCALAR"
		}
	],
	"bufferViews":[
		{
			"buffer":0,
			"byteLength":185508,
			"byteOffset":0,
			"target":34962
		},
		{
			"buffer":0,
			"byteLength":185508,
			"byteOffset":185508,
			"target":34962
		},
		{
			"buffer":0,
			"byteLength":123672,
			"byteOffset":371016,
			"target":34962
		},
		{
			"buffer":0,
			"byteLength":123672,
			"byteOffset":494688,
			"target":34962
		},
		{
			"buffer":0,
			"byteLength":119640,
			"byteOffset":618360,
			"target":34963
		}
	],
	"buffers":[
		{
			"byteLength":738000,
			"uri":"Tree.bin"
		}
	]
}
